<svg width="24" height="24" viewBox="0 0 24 24" fill="none" xmlns="http://www.w3.org/2000/svg">
<path d="M6.4533 19.0001L1.99951 22.5001V4.00012C1.99951 3.73491 2.10484 3.48055 2.29233 3.29302C2.47981 3.10548 2.7341 3.00012 2.99924 3.00012H20.9944C21.2595 3.00012 21.5138 3.10548 21.7013 3.29302C21.8888 3.48055 21.9941 3.73491 21.9941 4.00012V18.0001C21.9941 18.2653 21.8888 18.5197 21.7013 18.7072C21.5138 18.8948 21.2595 19.0001 20.9944 19.0001H6.4533ZM5.76149 17.0001H19.9946V5.00012H3.99897V18.3851L5.76149 17.0001ZM10.9971 10.0001H12.9965V12.0001H10.9971V10.0001ZM6.99815 10.0001H8.99761V12.0001H6.99815V10.0001ZM14.996 10.0001H16.9954V12.0001H14.996V10.0001Z" fill="#7B7A89"/>
</svg>
