<svg width="24" height="24" viewBox="0 0 24 24" fill="none" xmlns="http://www.w3.org/2000/svg">
<path d="M21 17.2692V18.306C21 18.9514 21 19.5967 20.9988 20.2421C20.9963 20.8308 20.6496 21.174 20.0428 21.1752C18.3073 21.1776 16.5709 21.1764 14.8335 21.1716C14.64 21.1716 14.5068 21.2247 14.376 21.3667C13.5892 22.2288 12.7933 23.0837 12.0001 23.941H11.9411C11.9138 23.893 11.8942 23.8363 11.857 23.797C11.0924 22.9673 10.3289 22.1355 9.55173 21.3166C9.46789 21.2287 9.29627 21.1829 9.16572 21.1817C7.49797 21.1733 5.83145 21.1613 4.16371 21.1853C3.63927 21.1923 3.24587 21.0526 3 20.5889V17.2368H5.93816V20.3506H18.0321V17.2692H21Z" fill="#7B7A89"/>
<path d="M21 2.056C21 2.91328 20.9996 3.77056 20.9988 4.62784C20.9988 4.72048 20.9914 4.81456 20.9865 4.9216H18.0493V1.82344H5.95488V4.9264H3V1.63216C3.21514 1.16008 3.59009 1 4.11183 1C9.38036 1.01072 14.6491 1.01272 19.9182 1.006C20.6816 1.006 21 1.31536 21 2.056Z" fill="#7B7A89"/>
<path d="M18.6387 8.54474C18.1308 6.26186 16.3506 4.68458 13.9723 4.40642C12.8167 4.27034 11.6311 4.32458 10.4605 4.35578C7.85062 4.42442 5.55369 6.43514 5.26627 8.96378C5.14161 10.0666 5.16399 11.1912 5.20087 12.3039C5.27463 14.5157 6.88214 16.5132 9.04826 17.1838C10.0072 17.4811 10.9948 17.4367 11.9778 17.4199C12.4996 17.4199 13.0225 17.4379 13.5445 17.4161C15.8882 17.3175 17.9505 15.763 18.5586 13.5521C19.0115 11.9016 19.0078 10.2027 18.6387 8.54474ZM17.0302 15.4567H6.97729V6.3209H17.0302V15.4567Z" fill="#7B7A89"/>
</svg>
