<svg width="64" height="64" viewBox="0 0 64 64" fill="none" xmlns="http://www.w3.org/2000/svg">
<path d="M8 49.3334V13.3334C8 11.2116 8.84285 9.17681 10.3431 7.67652C11.8434 6.17623 13.8783 5.33337 16 5.33337H53.3333C54.0406 5.33337 54.7189 5.61433 55.219 6.11442C55.7191 6.61452 56 7.2928 56 8.00004V56C56 56.7073 55.7191 57.3856 55.219 57.8857C54.7189 58.3858 54.0406 58.6667 53.3333 58.6667H17.3333C14.858 58.6667 12.484 57.6834 10.7337 55.933C8.98333 54.1827 8 51.8087 8 49.3334ZM50.6667 53.3334V45.3334H17.3333C16.2725 45.3334 15.2551 45.7548 14.5049 46.5049C13.7548 47.2551 13.3333 48.2725 13.3333 49.3334C13.3333 50.3942 13.7548 51.4117 14.5049 52.1618C15.2551 52.9119 16.2725 53.3334 17.3333 53.3334H50.6667ZM26.6667 10.6667H16C15.2928 10.6667 14.6145 10.9477 14.1144 11.4478C13.6143 11.9479 13.3333 12.6261 13.3333 13.3334V40.8987C14.5832 40.3052 15.9497 39.9982 17.3333 40H50.6667V10.6667H45.3333V32L36 26.6667L26.6667 32V10.6667Z" fill="#6162FF"/>
</svg>
