<svg width="64" height="64" viewBox="0 0 64 64" fill="none" xmlns="http://www.w3.org/2000/svg">
<path d="M47.5761 41.7573L48.0454 42.2293L48.5201 41.7573C49.0772 41.2001 49.7387 40.7582 50.4666 40.4566C51.1946 40.1551 51.9748 39.9999 52.7627 39.9999C53.5507 39.9999 54.3309 40.1551 55.0589 40.4566C55.7868 40.7582 56.4483 41.2001 57.0054 41.7573C57.5626 42.3144 58.0045 42.9759 58.3061 43.7038C58.6076 44.4318 58.7628 45.212 58.7628 46C58.7628 46.7879 58.6076 47.5681 58.3061 48.2961C58.0045 49.024 57.5626 49.6855 57.0054 50.2426L48.0454 59.2L39.0907 50.2426C37.9655 49.1174 37.3334 47.5913 37.3334 46C37.3334 44.4087 37.9655 42.8825 39.0907 41.7573C40.216 40.6321 41.7421 39.9999 43.3334 39.9999C44.9247 39.9999 46.4509 40.6321 47.5761 41.7573ZM32.0001 37.3333V42.6666C27.7566 42.6666 23.687 44.3523 20.6864 47.3529C17.6858 50.3535 16.0001 54.4232 16.0001 58.6666H10.6667C10.6668 53.1242 12.8239 47.7993 16.6813 43.8194C20.5388 39.8396 25.7936 37.5172 31.3334 37.344L32.0001 37.3333ZM32.0001 2.66663C40.8401 2.66663 48.0001 9.82663 48.0001 18.6666C48.0016 22.8067 46.3977 26.7861 43.5257 29.768C40.6537 32.7499 36.7373 34.502 32.6001 34.656L32.0001 34.6666C23.1601 34.6666 16.0001 27.5066 16.0001 18.6666C15.9986 14.5265 17.6025 10.5472 20.4745 7.56526C23.3465 4.58335 27.2629 2.83122 31.4001 2.67729L32.0001 2.66663ZM32.0001 7.99996C26.1067 7.99996 21.3334 12.7733 21.3334 18.6666C21.3334 24.56 26.1067 29.3333 32.0001 29.3333C37.8934 29.3333 42.6667 24.56 42.6667 18.6666C42.6667 12.7733 37.8934 7.99996 32.0001 7.99996Z" fill="#6162FF"/>
</svg>
