<svg width="64" height="64" viewBox="0 0 64 64" fill="none" xmlns="http://www.w3.org/2000/svg">
<path d="M18.6663 16.3333V8.33329C18.6663 7.62605 18.9473 6.94777 19.4474 6.44767C19.9475 5.94758 20.6258 5.66663 21.333 5.66663H42.6663C43.3736 5.66663 44.0519 5.94758 44.552 6.44767C45.0521 6.94777 45.333 7.62605 45.333 8.33329V16.3333H55.9997C56.7069 16.3333 57.3852 16.6142 57.8853 17.1143C58.3854 17.6144 58.6663 18.2927 58.6663 19V56.3333C58.6663 57.0405 58.3854 57.7188 57.8853 58.2189C57.3852 58.719 56.7069 59 55.9997 59H7.99967C7.29243 59 6.61415 58.719 6.11406 58.2189C5.61396 57.7188 5.33301 57.0405 5.33301 56.3333V19C5.33301 18.2927 5.61396 17.6144 6.11406 17.1143C6.61415 16.6142 7.29243 16.3333 7.99967 16.3333H18.6663ZM45.333 37.6666V29.6666H39.9997V37.6666H23.9997V29.6666H18.6663V37.6666H10.6663V53.6666H53.333V37.6666H45.333ZM23.9997 11V16.3333H39.9997V11H23.9997Z" fill="#6162FF"/>
</svg>
